<mxfile host="app.diagrams.net" agent="Mozilla/5.0 (Windows NT 10.0; Win64; x64) AppleWebKit/537.36 (KHTML, like Gecko) Chrome/129.0.0.0 Safari/537.36" version="24.7.17">
  <diagram name="Side-1" id="E_oPWn_IN8EQOlV64v-v">
    <mxGraphModel dx="2308" dy="779" grid="1" gridSize="5" guides="1" tooltips="1" connect="1" arrows="1" fold="1" page="1" pageScale="1" pageWidth="827" pageHeight="1169" math="0" shadow="0">
      <root>
        <mxCell id="0" />
        <mxCell id="1" parent="0" />
        <mxCell id="v01I_TzkL8D9j50CKtlL-28" value="" style="shape=offPageConnector;whiteSpace=wrap;html=1;rotation=-90;size=0.17777777777777778;" parent="1" vertex="1">
          <mxGeometry x="-351" y="166.5" width="16" height="45" as="geometry" />
        </mxCell>
        <mxCell id="v01I_TzkL8D9j50CKtlL-29" value="" style="shape=offPageConnector;whiteSpace=wrap;html=1;rotation=-90;size=0.15555555555555556;" parent="1" vertex="1">
          <mxGeometry x="-351" y="222.5" width="16" height="45" as="geometry" />
        </mxCell>
        <mxCell id="v01I_TzkL8D9j50CKtlL-30" value="" style="shape=offPageConnector;whiteSpace=wrap;html=1;rotation=90;size=0.15555555555555556;" parent="1" vertex="1">
          <mxGeometry x="-353" y="274" width="16" height="45" as="geometry" />
        </mxCell>
        <mxCell id="v01I_TzkL8D9j50CKtlL-31" value="&lt;font style=&quot;font-size: 18px;&quot;&gt;ADC Voltage&lt;br style=&quot;font-size: 18px;&quot;&gt;(From Analog Front End)&lt;/font&gt;" style="text;html=1;align=center;verticalAlign=middle;resizable=0;points=[];autosize=1;strokeColor=none;fillColor=none;fontSize=18;" parent="1" vertex="1">
          <mxGeometry x="-580" y="159" width="220" height="60" as="geometry" />
        </mxCell>
        <mxCell id="v01I_TzkL8D9j50CKtlL-34" value="&lt;font style=&quot;font-size: 18px;&quot;&gt;ADC Current&lt;br style=&quot;font-size: 18px;&quot;&gt;(From Analog Front End)&lt;br&gt;&lt;/font&gt;" style="text;html=1;align=center;verticalAlign=middle;resizable=0;points=[];autosize=1;strokeColor=none;fillColor=none;fontSize=18;" parent="1" vertex="1">
          <mxGeometry x="-580" y="222.5" width="220" height="60" as="geometry" />
        </mxCell>
        <mxCell id="v01I_TzkL8D9j50CKtlL-35" value="&lt;font style=&quot;font-size: 18px;&quot;&gt;Range Selection&lt;br style=&quot;font-size: 18px;&quot;&gt;(To Analog Front End)&lt;br&gt;&lt;/font&gt;" style="text;html=1;align=center;verticalAlign=middle;resizable=0;points=[];autosize=1;strokeColor=none;fillColor=none;fontSize=18;" parent="1" vertex="1">
          <mxGeometry x="-567.5" y="282.5" width="195" height="60" as="geometry" />
        </mxCell>
        <mxCell id="v01I_TzkL8D9j50CKtlL-38" value="" style="shape=offPageConnector;whiteSpace=wrap;html=1;rotation=-90;size=0.13333333333333333;" parent="1" vertex="1">
          <mxGeometry x="315" y="219" width="16" height="45" as="geometry" />
        </mxCell>
        <mxCell id="v01I_TzkL8D9j50CKtlL-39" value="&lt;font style=&quot;font-size: 18px;&quot;&gt;Sample Memory&lt;br style=&quot;font-size: 18px;&quot;&gt;(To MCU)&lt;/font&gt;" style="text;html=1;align=center;verticalAlign=middle;resizable=0;points=[];autosize=1;strokeColor=none;fillColor=none;fontSize=18;" parent="1" vertex="1">
          <mxGeometry x="370" y="211.5" width="150" height="60" as="geometry" />
        </mxCell>
        <mxCell id="v01I_TzkL8D9j50CKtlL-43" value="&lt;font style=&quot;font-size: 18px;&quot;&gt;Test Parameters&lt;br style=&quot;font-size: 18px;&quot;&gt;(To and From MCU)&lt;/font&gt;" style="text;html=1;align=center;verticalAlign=middle;resizable=0;points=[];autosize=1;strokeColor=none;fillColor=none;fontSize=18;" parent="1" vertex="1">
          <mxGeometry x="355" y="368.5" width="180" height="60" as="geometry" />
        </mxCell>
        <mxCell id="mm5xMBBk__uPq1D-_3kj-1" value="&lt;span style=&quot;font-size: 26px;&quot;&gt;Sample Control&lt;br style=&quot;font-size: 26px;&quot;&gt;(FPGA)&lt;/span&gt;" style="swimlane;whiteSpace=wrap;html=1;startSize=70;strokeWidth=2;fillColor=#dae8fc;strokeColor=#6c8ebf;fontSize=26;" vertex="1" parent="1">
          <mxGeometry x="-305" y="80" width="583" height="560" as="geometry" />
        </mxCell>
        <mxCell id="mm5xMBBk__uPq1D-_3kj-2" style="edgeStyle=orthogonalEdgeStyle;rounded=0;orthogonalLoop=1;jettySize=auto;html=1;entryX=0.5;entryY=0;entryDx=0;entryDy=0;strokeWidth=2;fontSize=26;" edge="1" parent="mm5xMBBk__uPq1D-_3kj-1" source="mm5xMBBk__uPq1D-_3kj-3" target="mm5xMBBk__uPq1D-_3kj-4">
          <mxGeometry relative="1" as="geometry" />
        </mxCell>
        <mxCell id="mm5xMBBk__uPq1D-_3kj-3" value="&lt;font style=&quot;font-size: 24px;&quot;&gt;ADC&lt;br style=&quot;font-size: 24px;&quot;&gt;Sample and Range Control&lt;/font&gt;" style="rounded=1;whiteSpace=wrap;html=1;fontSize=24;" vertex="1" parent="mm5xMBBk__uPq1D-_3kj-1">
          <mxGeometry x="24.75" y="92" width="153.5" height="148" as="geometry" />
        </mxCell>
        <mxCell id="mm5xMBBk__uPq1D-_3kj-4" value="" style="rounded=1;whiteSpace=wrap;html=1;fillColor=none;" vertex="1" parent="mm5xMBBk__uPq1D-_3kj-1">
          <mxGeometry x="24.75" y="309.75" width="153.5" height="91.25" as="geometry" />
        </mxCell>
        <mxCell id="mm5xMBBk__uPq1D-_3kj-5" value="&lt;font style=&quot;font-size: 24px;&quot;&gt;Sample&lt;br style=&quot;font-size: 24px;&quot;&gt;Memory&lt;/font&gt;" style="text;html=1;align=center;verticalAlign=middle;resizable=0;points=[];autosize=1;strokeColor=none;fillColor=none;fontSize=24;" vertex="1" parent="mm5xMBBk__uPq1D-_3kj-1">
          <mxGeometry x="46.5" y="305" width="110" height="70" as="geometry" />
        </mxCell>
        <mxCell id="mm5xMBBk__uPq1D-_3kj-6" value="" style="sketch=0;outlineConnect=0;fontColor=#232F3E;gradientColor=none;fillColor=#232F3D;strokeColor=none;dashed=0;verticalLabelPosition=bottom;verticalAlign=top;align=center;html=1;fontSize=12;fontStyle=0;aspect=fixed;pointerEvents=1;shape=mxgraph.aws4.generic_database;" vertex="1" parent="mm5xMBBk__uPq1D-_3kj-1">
          <mxGeometry x="89.21000000000004" y="366.5" width="24.58" height="32.5" as="geometry" />
        </mxCell>
        <mxCell id="mm5xMBBk__uPq1D-_3kj-7" style="edgeStyle=orthogonalEdgeStyle;rounded=0;orthogonalLoop=1;jettySize=auto;html=1;entryX=0;entryY=0.5;entryDx=0;entryDy=0;startArrow=classic;startFill=1;strokeWidth=2;fontSize=26;" edge="1" parent="mm5xMBBk__uPq1D-_3kj-1" source="mm5xMBBk__uPq1D-_3kj-8" target="mm5xMBBk__uPq1D-_3kj-13">
          <mxGeometry relative="1" as="geometry" />
        </mxCell>
        <mxCell id="mm5xMBBk__uPq1D-_3kj-8" value="&lt;font style=&quot;font-size: 24px;&quot;&gt;Status and Sample&lt;br&gt;Registers&lt;/font&gt;" style="rounded=1;whiteSpace=wrap;html=1;fontSize=18;" vertex="1" parent="mm5xMBBk__uPq1D-_3kj-1">
          <mxGeometry x="223" y="92" width="137" height="448" as="geometry" />
        </mxCell>
        <mxCell id="mm5xMBBk__uPq1D-_3kj-9" value="&lt;font style=&quot;font-size: 24px;&quot;&gt;DAC Control&lt;/font&gt;" style="rounded=1;whiteSpace=wrap;html=1;fontSize=24;" vertex="1" parent="mm5xMBBk__uPq1D-_3kj-1">
          <mxGeometry x="24.75" y="455" width="153.5" height="78" as="geometry" />
        </mxCell>
        <mxCell id="mm5xMBBk__uPq1D-_3kj-10" style="edgeStyle=orthogonalEdgeStyle;rounded=0;orthogonalLoop=1;jettySize=auto;html=1;entryX=-0.003;entryY=0.165;entryDx=0;entryDy=0;entryPerimeter=0;strokeWidth=2;startArrow=classic;startFill=1;fontSize=26;" edge="1" parent="mm5xMBBk__uPq1D-_3kj-1" source="mm5xMBBk__uPq1D-_3kj-3" target="mm5xMBBk__uPq1D-_3kj-8">
          <mxGeometry relative="1" as="geometry" />
        </mxCell>
        <mxCell id="mm5xMBBk__uPq1D-_3kj-11" style="edgeStyle=orthogonalEdgeStyle;rounded=0;orthogonalLoop=1;jettySize=auto;html=1;entryX=-0.003;entryY=0.588;entryDx=0;entryDy=0;entryPerimeter=0;strokeWidth=2;fontSize=26;" edge="1" parent="mm5xMBBk__uPq1D-_3kj-1" source="mm5xMBBk__uPq1D-_3kj-4" target="mm5xMBBk__uPq1D-_3kj-8">
          <mxGeometry relative="1" as="geometry" />
        </mxCell>
        <mxCell id="mm5xMBBk__uPq1D-_3kj-12" style="edgeStyle=orthogonalEdgeStyle;rounded=0;orthogonalLoop=1;jettySize=auto;html=1;strokeWidth=2;startArrow=classic;startFill=1;endArrow=none;endFill=0;fontSize=26;" edge="1" parent="mm5xMBBk__uPq1D-_3kj-1" source="mm5xMBBk__uPq1D-_3kj-9">
          <mxGeometry relative="1" as="geometry">
            <mxPoint x="223" y="494" as="targetPoint" />
          </mxGeometry>
        </mxCell>
        <mxCell id="mm5xMBBk__uPq1D-_3kj-13" value="&lt;span style=&quot;font-size: 24px;&quot;&gt;FPGA&lt;br&gt;Interface&lt;br&gt;&lt;/span&gt;" style="rounded=1;whiteSpace=wrap;html=1;fontSize=18;" vertex="1" parent="mm5xMBBk__uPq1D-_3kj-1">
          <mxGeometry x="413" y="92" width="137" height="448" as="geometry" />
        </mxCell>
        <mxCell id="mm5xMBBk__uPq1D-_3kj-15" style="edgeStyle=orthogonalEdgeStyle;rounded=0;orthogonalLoop=1;jettySize=auto;html=1;exitX=0.5;exitY=1;exitDx=0;exitDy=0;entryX=0.005;entryY=0.115;entryDx=0;entryDy=0;entryPerimeter=0;strokeWidth=2;" edge="1" parent="1" source="v01I_TzkL8D9j50CKtlL-28" target="mm5xMBBk__uPq1D-_3kj-3">
          <mxGeometry relative="1" as="geometry" />
        </mxCell>
        <mxCell id="mm5xMBBk__uPq1D-_3kj-18" style="edgeStyle=orthogonalEdgeStyle;rounded=0;orthogonalLoop=1;jettySize=auto;html=1;entryX=-0.004;entryY=0.493;entryDx=0;entryDy=0;entryPerimeter=0;strokeWidth=2;" edge="1" parent="1" source="v01I_TzkL8D9j50CKtlL-29" target="mm5xMBBk__uPq1D-_3kj-3">
          <mxGeometry relative="1" as="geometry" />
        </mxCell>
        <mxCell id="mm5xMBBk__uPq1D-_3kj-20" style="edgeStyle=orthogonalEdgeStyle;rounded=0;orthogonalLoop=1;jettySize=auto;html=1;entryX=0.002;entryY=0.841;entryDx=0;entryDy=0;entryPerimeter=0;strokeWidth=2;startArrow=none;startFill=0;endArrow=none;endFill=0;" edge="1" parent="1" source="v01I_TzkL8D9j50CKtlL-30" target="mm5xMBBk__uPq1D-_3kj-3">
          <mxGeometry relative="1" as="geometry" />
        </mxCell>
        <mxCell id="mm5xMBBk__uPq1D-_3kj-24" style="edgeStyle=orthogonalEdgeStyle;rounded=0;orthogonalLoop=1;jettySize=auto;html=1;entryX=0.999;entryY=0.155;entryDx=0;entryDy=0;entryPerimeter=0;endArrow=none;endFill=0;strokeWidth=2;" edge="1" parent="1" source="v01I_TzkL8D9j50CKtlL-38" target="mm5xMBBk__uPq1D-_3kj-13">
          <mxGeometry relative="1" as="geometry" />
        </mxCell>
        <mxCell id="mm5xMBBk__uPq1D-_3kj-25" value="" style="shape=hexagon;perimeter=hexagonPerimeter2;whiteSpace=wrap;html=1;fixedSize=1;size=7;" vertex="1" parent="1">
          <mxGeometry x="296.5" y="390" width="53" height="17" as="geometry" />
        </mxCell>
        <mxCell id="mm5xMBBk__uPq1D-_3kj-26" style="edgeStyle=orthogonalEdgeStyle;rounded=0;orthogonalLoop=1;jettySize=auto;html=1;entryX=0.998;entryY=0.506;entryDx=0;entryDy=0;entryPerimeter=0;" edge="1" parent="1" source="mm5xMBBk__uPq1D-_3kj-25" target="mm5xMBBk__uPq1D-_3kj-13">
          <mxGeometry relative="1" as="geometry" />
        </mxCell>
      </root>
    </mxGraphModel>
  </diagram>
</mxfile>
